<?xml version="1.0" encoding="utf-8"?>
<!-- Generator: Adobe Illustrator 21.1.0, SVG Export Plug-In . SVG Version: 6.00 Build 0)  -->
<svg version="1.1" id="Слой_2" xmlns="http://www.w3.org/2000/svg" xmlns:xlink="http://www.w3.org/1999/xlink" x="0px" y="0px"
	 viewBox="0 0 59.9 59" style="enable-background:new 0 0 59.9 59;" xml:space="preserve">
<style type="text/css">
	.st0{fill:#23ACFF;}
	.st1{fill:#1A7BD6;}
	.st2{fill:#2099FF;}
	.st3{fill:#2098FE;}
	.st4{fill:#1A7CD7;}
	.st5{fill:#1460A6;}
</style>
<polygon class="st0" points="36.9,21 37.8,27.7 39.9,39 40.1,57.1 30,31 "/>
<polyline class="st1" points="59.9,32.2 40.1,57.1 40,44.9 46.2,34.1 59.9,32.2 "/>
<polygon class="st2" points="7.1,44.9 9.1,57 30.9,59 18.6,47.4 "/>
<polygon class="st3" points="0.1,21 36.9,21 29.5,32 0.1,32 "/>
<polygon class="st4" points="10.3,17.8 11,30.2 22.8,40 22.8,25.8 "/>
<polygon class="st4" points="0,21 37.2,51.3 30.7,58.8 0,35.2 "/>
<polygon class="st5" points="15.8,47.3 22.4,34.2 49.9,22.5 59.9,32.2 "/>
<polyline class="st5" points="10.3,17.8 33.6,6.5 27.6,2 49.7,1.8 50.1,20.2 42.7,15.7 22.8,25.8 10.3,17.8 "/>
</svg>
